<?xml version="1.0" encoding="UTF-8" standalone="no"?>
<svg id="svg2" xmlns:rdf="http://www.w3.org/1999/02/22-rdf-syntax-ns#" xmlns="http://www.w3.org/2000/svg" height="200" width="200" version="1.1" xmlns:cc="http://creativecommons.org/ns#" xmlns:xlink="http://www.w3.org/1999/xlink" viewBox="0 0 200 200" xmlns:dc="http://purl.org/dc/elements/1.1/">
<defs id="defs4">
<radialGradient id="radialGradient4273" gradientUnits="userSpaceOnUse" cy="1012.2" cx="100.02" gradientTransform="matrix(1.0045 1.3301e-7 -1.4788e-8 .11168 -.46836 902.68)" r="111.69">
<stop id="stop4269" offset="0"/>
<stop id="stop4271" stop-opacity="0" offset="1"/>
</radialGradient>
<radialGradient id="radialGradient4300" gradientUnits="userSpaceOnUse" cy="921.18" cx="100" gradientTransform="matrix(5.9422 0 0 6.2286 -494.22 -4816.5)" r="20.644">
<stop id="stop4296" offset="0"/>
<stop id="stop4298" stop-opacity="0" offset="1"/>
</radialGradient>
</defs>
<g id="layer1" transform="translate(0 -852.36)">
<g id="layer1-9" transform="matrix(.38755 .18954 -.18954 .38755 41.72 939.44)" stroke-width=".5" fill="#ff0">
<path id="path3651" d="m46.296 51.906-14.38-9.431-14.413 9.38 4.526-16.591-13.375-10.81 17.177-0.822 6.148-16.06 6.09 16.082 17.174 0.884-13.414 10.761z" transform="matrix(.98686 0 0 1.037 .47132 1.1595)" stroke="#7f7f7f" stroke-width=".49425" fill="#ff0"/>
</g>
<path id="XMLID_2_" d="m81.701 945.83c4.5624 6.3986 9.6257 12.463 15.106 18.083 1.6414 2.003 4.7016 2.003 6.3151 0l0.11128-0.11128c5.4249-5.564 10.432-11.545 14.939-17.888l1.7805-2.476c1.6136-1.9752 0.22256-4.9519-2.3369-4.9519h-9.8204c0.0556-0.36166 0.11128-0.75114 0.1391-1.1406 0.11128-2.5872 0.22256-5.1745 0.36166-7.7339 0.47294-8.3181 0.94587-16.636 1.4188-24.982 0.30602-5.3136 0.61204-10.655 0.94587-15.969 0.11128-1.8639-0.11128-3.6722-0.89023-5.3692-2.1978-4.8128-7.3166-7.2888-12.435-6.0091-5.0076 1.2519-8.3459 6.0091-7.9843 11.406 0.22256 3.4497 0.44512 6.8993 0.63986 10.349 0.69549 12.853 1.391 25.733 2.0865 38.586 0.0278 0.2782 0.0556 0.58422 0.0835 0.86242h-9.7648c-2.5594 0-3.9782 2.9767-2.3369 4.9519l1.6414 2.3925z" class="st0" fill="url(#radialGradient4300)"/>
<g stroke-width=".5" fill="#ff0">
<g id="layer1-9-4" transform="matrix(.34822 -.25467 .25467 .34822 31.782 984.97)">
<path id="path3651-4" d="m46.296 51.906-14.38-9.431-14.413 9.38 4.526-16.591-13.375-10.81 17.177-0.822 6.148-16.06 6.09 16.082 17.174 0.884-13.414 10.761z" transform="matrix(.98686 0 0 1.037 .47132 1.1595)" stroke="#7f7f7f" stroke-width=".49425" fill="#ff0"/>
</g>
<g id="layer1-9-1" transform="matrix(.25604 .34722 -.34722 .25604 106.48 970.83)">
<path id="path3651-8" d="m46.296 51.906-14.38-9.431-14.413 9.38 4.526-16.591-13.375-10.81 17.177-0.822 6.148-16.06 6.09 16.082 17.174 0.884-13.414 10.761z" transform="matrix(.98686 0 0 1.037 .47132 1.1595)" stroke="#7f7f7f" stroke-width=".49425" fill="#ff0"/>
</g>
<g id="layer1-9-2" transform="matrix(.42993 .035713 -.035713 .42993 64.107 959.64)">
<path id="path3651-3" d="m46.296 51.906-14.38-9.431-14.413 9.38 4.526-16.591-13.375-10.81 17.177-0.822 6.148-16.06 6.09 16.082 17.174 0.884-13.414 10.761z" transform="matrix(.98686 0 0 1.037 .47132 1.1595)" stroke="#7f7f7f" stroke-width=".49425" fill="#ff0"/>
</g>
<g id="layer1-9-7" transform="matrix(.38755 .18954 -.18954 .38755 119.91 953.24)">
<path id="path3651-47" d="m46.296 51.906-14.38-9.431-14.413 9.38 4.526-16.591-13.375-10.81 17.177-0.822 6.148-16.06 6.09 16.082 17.174 0.884-13.414 10.761z" transform="matrix(.98686 0 0 1.037 .47132 1.1595)" stroke="#7f7f7f" stroke-width=".49425" fill="#ff0"/>
</g>
<g id="layer1-9-15" transform="matrix(-.00062719 .43141 -.43141 -.00062719 167.55 942.93)">
<path id="path3651-9" d="m46.296 51.906-14.38-9.431-14.413 9.38 4.526-16.591-13.375-10.81 17.177-0.822 6.148-16.06 6.09 16.082 17.174 0.884-13.414 10.761z" transform="matrix(.98686 0 0 1.037 .47132 1.1595)" stroke="#7f7f7f" stroke-width=".49425" fill="#ff0"/>
</g>
<g id="layer1-9-4-5" transform="matrix(.38703 .19060 -.19060 .38703 145.48 967.32)">
<path id="path3651-4-4" d="m46.296 51.906-14.38-9.431-14.413 9.38 4.526-16.591-13.375-10.81 17.177-0.822 6.148-16.06 6.09 16.082 17.174 0.884-13.414 10.761z" transform="matrix(.98686 0 0 1.037 .47132 1.1595)" stroke="#7f7f7f" stroke-width=".49425" fill="#ff0"/>
</g>
</g>
<ellipse id="path4231" rx="111.69" ry="12.49" cy="1015.7" cx="100" fill="url(#radialGradient4273)"/>
</g>
<style id="style3345" type="text/css">.st0{fill:#000;}</style>
</svg>
